<svg viewBox="0 0 16 16" xmlns="http://www.w3.org/2000/svg">
  <g fill="currentColor">
    <path d="M8,1.2 Q9.6,0.6 10.6,1.6 Q9.9,3 8.5,3 Z"/>
    <rect x="7.6" y="3" width="0.8" height="1.3" rx="0.4"/>
    <rect x="3.3415" y="5.8" width="5.517" height="1" rx="0.5" transform="rotate(133.56 6.1 6.3)"/>
    <rect x="7.1415" y="5.8" width="5.517" height="1" rx="0.5" transform="rotate(46.44 9.9 6.3)"/>
    <rect x="4.2" y="7.8" width="7.6" height="1" rx="0.5"/>
    <rect x="3.3415" y="9.8" width="5.517" height="1" rx="0.5" transform="rotate(46.44 6.1 10.3)"/>
    <rect x="7.1415" y="9.8" width="5.517" height="1" rx="0.5" transform="rotate(133.56 9.9 10.3)"/>
  </g>
  <g fill="currentColor">
    <circle cx="8" cy="4.3" r="1.3"/>
    <circle cx="4.2" cy="8.3" r="1.3"/>
    <circle cx="11.8" cy="8.3" r="1.3"/>
    <circle cx="8" cy="12.3" r="1.3"/>
  </g>
</svg>
