<svg xmlns="http://www.w3.org/2000/svg" viewBox="0 0 1680 1180" role="img" aria-labelledby="title desc">
  <title id="title">IronMesh at a glance</title>
  <desc id="desc">Single-picture overview of IronMesh showing zero-touch setup, rendezvous and relay connectivity, access surfaces, and multi-node storage behavior around a private self-hosted cluster.</desc>
  <defs>
    <linearGradient id="bg" x1="0" y1="0" x2="1680" y2="1180" gradientUnits="userSpaceOnUse">
      <stop offset="0" stop-color="#f9fdfb"/>
      <stop offset="1" stop-color="#e1f2ec"/>
    </linearGradient>
    <radialGradient id="glow-left" cx="0" cy="0" r="1" gradientTransform="translate(180 120) rotate(22) scale(420 300)" gradientUnits="userSpaceOnUse">
      <stop offset="0" stop-color="#d7fff2"/>
      <stop offset="1" stop-color="#d7fff2" stop-opacity="0"/>
    </radialGradient>
    <radialGradient id="glow-right" cx="0" cy="0" r="1" gradientTransform="translate(1490 210) rotate(-18) scale(420 340)" gradientUnits="userSpaceOnUse">
      <stop offset="0" stop-color="#bfeedd"/>
      <stop offset="1" stop-color="#bfeedd" stop-opacity="0"/>
    </radialGradient>
    <linearGradient id="card" x1="0" y1="0" x2="0" y2="1">
      <stop offset="0" stop-color="#ffffff" stop-opacity="0.96"/>
      <stop offset="1" stop-color="#f4fbf8" stop-opacity="0.94"/>
    </linearGradient>
    <linearGradient id="card-border" x1="0" y1="0" x2="1" y2="1">
      <stop offset="0" stop-color="#cfe8df"/>
      <stop offset="1" stop-color="#b7d8ce"/>
    </linearGradient>
    <linearGradient id="cluster-panel" x1="0" y1="0" x2="740" y2="560" gradientUnits="userSpaceOnUse">
      <stop offset="0" stop-color="#112826"/>
      <stop offset="0.52" stop-color="#143934"/>
      <stop offset="1" stop-color="#0d6558"/>
    </linearGradient>
    <linearGradient id="cluster-highlight" x1="0" y1="0" x2="720" y2="560" gradientUnits="userSpaceOnUse">
      <stop offset="0" stop-color="#78e5c6" stop-opacity="0.18"/>
      <stop offset="1" stop-color="#78e5c6" stop-opacity="0"/>
    </linearGradient>
    <linearGradient id="mesh-panel" x1="24" y1="20" x2="220" y2="232" gradientUnits="userSpaceOnUse">
      <stop offset="0" stop-color="#112523"/>
      <stop offset="0.52" stop-color="#163f3a"/>
      <stop offset="1" stop-color="#0d6b5c"/>
    </linearGradient>
    <linearGradient id="mesh-lines" x1="72" y1="68" x2="184" y2="188" gradientUnits="userSpaceOnUse">
      <stop offset="0" stop-color="#d9fff4"/>
      <stop offset="0.45" stop-color="#74e4c8"/>
      <stop offset="1" stop-color="#14b8a6"/>
    </linearGradient>
    <linearGradient id="accent" x1="0" y1="0" x2="1" y2="1">
      <stop offset="0" stop-color="#12a594"/>
      <stop offset="1" stop-color="#74e4c8"/>
    </linearGradient>
    <linearGradient id="gold" x1="0" y1="0" x2="1" y2="1">
      <stop offset="0" stop-color="#f6d078"/>
      <stop offset="1" stop-color="#d08e22"/>
    </linearGradient>
    <filter id="shadow-xl" x="-20%" y="-20%" width="140%" height="150%">
      <feDropShadow dx="0" dy="24" stdDeviation="28" flood-color="#0a1715" flood-opacity="0.16"/>
    </filter>
    <filter id="shadow-md" x="-20%" y="-20%" width="140%" height="150%">
      <feDropShadow dx="0" dy="14" stdDeviation="16" flood-color="#09201c" flood-opacity="0.12"/>
    </filter>
    <filter id="shadow-sm" x="-20%" y="-20%" width="140%" height="150%">
      <feDropShadow dx="0" dy="8" stdDeviation="8" flood-color="#0c1917" flood-opacity="0.1"/>
    </filter>
    <pattern id="grid" width="44" height="44" patternUnits="userSpaceOnUse">
      <path d="M44 0H0V44" fill="none" stroke="#d5e8e1" stroke-width="1"/>
    </pattern>
    <marker id="arrow-teal" viewBox="0 0 12 12" markerWidth="12" markerHeight="12" refX="10" refY="6" orient="auto">
      <path d="M0 0L12 6L0 12z" fill="#18b7a6"/>
    </marker>
    <marker id="arrow-slate" viewBox="0 0 12 12" markerWidth="12" markerHeight="12" refX="10" refY="6" orient="auto">
      <path d="M0 0L12 6L0 12z" fill="#244843"/>
    </marker>
    <style>
      .eyebrow { font-family: "IBM Plex Mono", Consolas, monospace; font-size: 9px; font-weight: 700; letter-spacing: 2.8px; }
      .titleText { font-family: "Space Grotesk", "Segoe UI", Arial, sans-serif; font-size: 38px; font-weight: 700; letter-spacing: 1px; fill: #112826; }
      .subtitle { font-family: "Space Grotesk", "Segoe UI", Arial, sans-serif; font-size: 14px; font-weight: 500; fill: #365c56; }
      .cardTitle { font-family: "Space Grotesk", "Segoe UI", Arial, sans-serif; font-size: 20px; font-weight: 700; fill: #122c29; }
      .cardBody { font-family: "Space Grotesk", "Segoe UI", Arial, sans-serif; font-size: 11px; font-weight: 500; fill: #375a54; }
      .small { font-family: "Space Grotesk", "Segoe UI", Arial, sans-serif; font-size: 10px; font-weight: 500; fill: #466a64; }
      .mono { font-family: "IBM Plex Mono", Consolas, monospace; font-size: 9px; font-weight: 700; fill: #113532; letter-spacing: 0.4px; }
      .pill { font-family: "IBM Plex Mono", Consolas, monospace; font-size: 9px; font-weight: 700; fill: #15403a; letter-spacing: 0.5px; }
      .clusterEyebrow { font-family: "IBM Plex Mono", Consolas, monospace; font-size: 9px; font-weight: 700; letter-spacing: 2.6px; fill: #8debd0; }
      .clusterTitle { font-family: "Space Grotesk", "Segoe UI", Arial, sans-serif; font-size: 24px; font-weight: 700; fill: #f7fffc; }
      .clusterBody { font-family: "Space Grotesk", "Segoe UI", Arial, sans-serif; font-size: 12px; font-weight: 500; fill: #d4f3ea; }
      .nodeTitle { font-family: "Space Grotesk", "Segoe UI", Arial, sans-serif; font-size: 14px; font-weight: 700; fill: #f6fffb; }
      .nodeBody { font-family: "Space Grotesk", "Segoe UI", Arial, sans-serif; font-size: 10px; font-weight: 500; fill: #d2efe7; }
      .nodeTag { font-family: "IBM Plex Mono", Consolas, monospace; font-size: 8px; font-weight: 700; letter-spacing: 0.4px; fill: #0f2b28; }
      .coreTitle { font-family: "Space Grotesk", "Segoe UI", Arial, sans-serif; font-size: 18px; font-weight: 700; fill: #10312d; }
      .coreBody { font-family: "Space Grotesk", "Segoe UI", Arial, sans-serif; font-size: 11px; font-weight: 500; fill: #31534d; }
      .connectorLabel { font-family: "IBM Plex Mono", Consolas, monospace; font-size: 8px; font-weight: 700; fill: #214742; letter-spacing: 0.4px; }
    </style>
  </defs>

  <rect width="1680" height="1180" fill="url(#bg)"/>
  <rect width="1680" height="1180" fill="url(#grid)" opacity="0.65"/>
  <circle cx="180" cy="120" r="320" fill="url(#glow-left)"/>
  <circle cx="1490" cy="210" r="360" fill="url(#glow-right)"/>

  <g transform="translate(70 42)">
    <g transform="scale(0.54)" filter="url(#shadow-md)">
      <rect x="28" y="28" width="200" height="200" rx="54" fill="url(#mesh-panel)"/>
      <g fill="none" stroke="url(#mesh-lines)" stroke-width="10" stroke-linecap="round" stroke-linejoin="round">
        <path d="M128 68 L176 96 L176 160 L128 188 L80 160 L80 96 Z"/>
        <path d="M128 68 L128 188"/>
        <path d="M80 96 L176 160"/>
        <path d="M176 96 L80 160"/>
        <path d="M80 96 L176 96"/>
        <path d="M80 160 L176 160"/>
      </g>
      <g fill="#effff9">
        <circle cx="128" cy="68" r="10"/>
        <circle cx="176" cy="96" r="10"/>
        <circle cx="176" cy="160" r="10"/>
        <circle cx="128" cy="188" r="10"/>
        <circle cx="80" cy="160" r="10"/>
        <circle cx="80" cy="96" r="10"/>
        <circle cx="128" cy="128" r="12" fill="#14b8a6"/>
      </g>
      <g fill="#0d3d37">
        <circle cx="128" cy="68" r="4"/>
        <circle cx="176" cy="96" r="4"/>
        <circle cx="176" cy="160" r="4"/>
        <circle cx="128" cy="188" r="4"/>
        <circle cx="80" cy="160" r="4"/>
        <circle cx="80" cy="96" r="4"/>
        <circle cx="128" cy="128" r="4" fill="#e9fff8"/>
      </g>
    </g>
    <text x="150" y="40" class="eyebrow" fill="#0e6d5d">ONE-PICTURE OVERVIEW</text>
    <text x="150" y="76" class="titleText">IRONMESH AT A GLANCE</text>
    <text x="150" y="101" class="subtitle">Private, self-hosted storage that wraps clustered data, zero-touch onboarding,</text>
    <text x="150" y="121" class="subtitle">and relay-capable access into something closer to a consumer cloud drive.</text>
  </g>

  <path d="M450 316 C518 316 525 344 480 392" fill="none" stroke="#9dcbc0" stroke-width="5" stroke-linecap="round"/>
  <path d="M1230 322 C1162 322 1155 350 1200 396" fill="none" stroke="#9dcbc0" stroke-width="5" stroke-linecap="round"/>
  <path d="M450 982 C528 982 528 876 480 744" fill="none" stroke="#9dcbc0" stroke-width="5" stroke-linecap="round"/>
  <path d="M1230 992 C1152 992 1152 886 1200 748" fill="none" stroke="#9dcbc0" stroke-width="5" stroke-linecap="round"/>

  <g transform="translate(472 356)" filter="url(#shadow-sm)">
    <rect x="0" y="0" width="136" height="28" rx="14" fill="#ffffff" fill-opacity="0.84"/>
    <text x="18" y="18" class="connectorLabel">setup + trust</text>
  </g>
  <g transform="translate(1070 358)" filter="url(#shadow-sm)">
    <rect x="0" y="0" width="142" height="28" rx="14" fill="#ffffff" fill-opacity="0.84"/>
    <text x="18" y="18" class="connectorLabel">direct / relay</text>
  </g>
  <g transform="translate(470 808)" filter="url(#shadow-sm)">
    <rect x="0" y="0" width="144" height="28" rx="14" fill="#ffffff" fill-opacity="0.84"/>
    <text x="18" y="18" class="connectorLabel">client operations</text>
  </g>
  <g transform="translate(1056 804)" filter="url(#shadow-sm)">
    <rect x="0" y="0" width="154" height="28" rx="14" fill="#ffffff" fill-opacity="0.84"/>
    <text x="18" y="18" class="connectorLabel">replicate + reconcile</text>
  </g>

  <g transform="translate(60 190)" filter="url(#shadow-md)">
    <rect width="390" height="252" rx="32" fill="url(#card)"/>
    <rect x="1.5" y="1.5" width="387" height="249" rx="30.5" fill="none" stroke="url(#card-border)" stroke-width="3"/>
    <text x="28" y="38" class="eyebrow" fill="#0c8e77">ZERO-TOUCH SETUP</text>
    <text x="28" y="63" class="cardTitle">From fresh node to trusted cluster</text>
    <text x="28" y="83" class="cardBody">IronMesh hides the heavy PKI and enrollment mechanics behind guided UI flows.</text>

    <g transform="translate(24 96)">
      <rect width="342" height="30" rx="15" fill="#edf8f5"/>
      <circle cx="18" cy="15" r="11" fill="url(#accent)"/>
      <text x="14" y="19" class="mono" fill="#f5fffc">1</text>
      <text x="38" y="20" class="small" fill="#224944">Fresh node boots into a local HTTPS setup UI.</text>

      <rect y="29" width="342" height="30" rx="15" fill="#edf8f5"/>
      <circle cx="18" cy="44" r="11" fill="url(#accent)"/>
      <text x="14" y="48" class="mono" fill="#f5fffc">2</text>
      <text x="38" y="49" class="small" fill="#224944">Start a cluster or import an approved join package.</text>

      <rect y="58" width="342" height="30" rx="15" fill="#edf8f5"/>
      <circle cx="18" cy="73" r="11" fill="url(#accent)"/>
      <text x="14" y="77" class="mono" fill="#f5fffc">3</text>
      <text x="38" y="78" class="small" fill="#224944">Issue node and client bootstrap bundles for real access.</text>
    </g>

    <g transform="translate(24 192)">
      <rect width="342" height="22" rx="11" fill="#11312d"/>
      <text x="14" y="15" class="mono" fill="#86ecd1">regular path: first node also hosts managed rendezvous</text>
    </g>
  </g>

  <g transform="translate(1230 170)" filter="url(#shadow-md)">
    <rect width="390" height="300" rx="32" fill="url(#card)"/>
    <rect x="1.5" y="1.5" width="387" height="297" rx="30.5" fill="none" stroke="url(#card-border)" stroke-width="3"/>
    <text x="28" y="38" class="eyebrow" fill="#0c8e77">RENDEZVOUS + RELAY</text>
    <text x="28" y="63" class="cardTitle">Connectivity that survives awkward networks</text>
    <text x="28" y="83" class="cardBody">Every endpoint keeps an outbound control path alive so NAT and firewalls stop being a deal-breaker.</text>

    <g transform="translate(28 100)">
      <circle cx="42" cy="44" r="28" fill="#e7f7f1"/>
      <circle cx="290" cy="44" r="28" fill="#e7f7f1"/>
      <rect x="128" y="20" width="76" height="48" rx="20" fill="#11312d"/>
      <text x="147" y="48" class="mono" fill="#8debd0">rendezvous</text>

      <path d="M70 26 C148 -10 225 -10 292 22" fill="none" stroke="#18b7a6" stroke-width="4.5" stroke-linecap="round" marker-end="url(#arrow-teal)"/>
      <text x="98" y="16" class="mono" fill="#0d5e53">prefer direct HTTPS / QUIC</text>

      <path d="M70 56 H126" fill="none" stroke="#244843" stroke-width="4.5" stroke-linecap="round" marker-end="url(#arrow-slate)"/>
      <path d="M204 56 H262" fill="none" stroke="#244843" stroke-width="4.5" stroke-linecap="round" marker-end="url(#arrow-slate)"/>
      <text x="114" y="68" class="mono" fill="#264d48">relay fallback when direct fails</text>

      <text x="15" y="49" class="mono" fill="#163833">node / client</text>
      <text x="266" y="49" class="mono" fill="#163833">peer / node</text>
    </g>

    <g transform="translate(28 204)">
      <circle cx="8" cy="7" r="4" fill="#18b7a6"/>
      <text x="22" y="12" class="small" fill="#244843">Rendezvous tracks reachability and issues relay tickets.</text>
      <circle cx="8" cy="25" r="4" fill="#18b7a6"/>
      <text x="22" y="30" class="small" fill="#244843">Direct paths stay preferred; relay is a permanent safety net.</text>
      <circle cx="8" cy="43" r="4" fill="#18b7a6"/>
      <text x="22" y="48" class="small" fill="#244843">Inner peer security stays end-to-end above the relay.</text>
    </g>

    <g transform="translate(28 264)">
      <rect width="270" height="22" rx="11" fill="#eef9f5"/>
      <text x="14" y="15" class="mono">advanced path: standalone rendezvous-service</text>
    </g>
  </g>

  <g transform="translate(480 280)" filter="url(#shadow-xl)">
    <rect width="720" height="560" rx="38" fill="url(#cluster-panel)"/>
    <rect width="720" height="560" rx="38" fill="url(#cluster-highlight)"/>
    <rect x="1.5" y="1.5" width="717" height="557" rx="36.5" fill="none" stroke="#4cae96" stroke-opacity="0.42" stroke-width="3"/>

    <text x="42" y="50" class="clusterEyebrow">CORE CLUSTER</text>
    <text x="42" y="79" class="clusterTitle">Private, approved, multi-node storage</text>
    <text x="42" y="103" class="clusterBody">Server nodes share one logical namespace, exchange data and metadata, and keep trust rooted in cluster-issued identities.</text>
    <text x="42" y="120" class="clusterBody">The goal is consumer-cloud feel without giving up deployment control or data ownership.</text>

    <g transform="translate(42 135)">
      <rect width="154" height="28" rx="14" fill="#eafbf6" fill-opacity="0.14"/>
      <text x="16" y="18" class="pill" fill="#b4f6e2">rendezvous hashing</text>
      <rect x="168" width="132" height="28" rx="14" fill="#eafbf6" fill-opacity="0.14"/>
      <text x="184" y="18" class="pill" fill="#b4f6e2">async repair</text>
      <rect x="318" width="156" height="28" rx="14" fill="#eafbf6" fill-opacity="0.14"/>
      <text x="334" y="18" class="pill" fill="#b4f6e2">no-loss versions</text>
    </g>

    <path d="M360 308 V318" stroke="#77e7c7" stroke-width="5" stroke-linecap="round"/>
    <path d="M175 438 C208 402 225 390 234 376" fill="none" stroke="#77e7c7" stroke-width="5" stroke-linecap="round"/>
    <path d="M545 438 C512 402 495 390 486 376" fill="none" stroke="#77e7c7" stroke-width="5" stroke-linecap="round"/>
    <path d="M248 264 C206 292 176 330 170 432" fill="none" stroke="#74e4c8" stroke-opacity="0.46" stroke-width="3" stroke-dasharray="7 8" stroke-linecap="round"/>
    <path d="M472 264 C514 292 544 330 550 432" fill="none" stroke="#74e4c8" stroke-opacity="0.46" stroke-width="3" stroke-dasharray="7 8" stroke-linecap="round"/>
    <path d="M284 486 C360 520 480 520 558 486" fill="none" stroke="#74e4c8" stroke-opacity="0.36" stroke-width="3" stroke-dasharray="7 8" stroke-linecap="round"/>

    <g transform="translate(252 198)" filter="url(#shadow-sm)">
      <rect width="216" height="110" rx="24" fill="#17443d" fill-opacity="0.96"/>
      <rect x="1.5" y="1.5" width="213" height="107" rx="22.5" fill="none" stroke="url(#gold)" stroke-width="3"/>
      <rect x="18" y="18" width="64" height="22" rx="11" fill="#ffe6af"/>
      <text x="32" y="33" class="nodeTag">FIRST NODE</text>
      <text x="18" y="53" class="nodeTitle">Node A</text>
      <text x="18" y="68" class="nodeBody">setup UI + admin</text>
      <text x="18" y="81" class="nodeBody">managed rendezvous in regular path</text>
    </g>

    <g transform="translate(234 318)" filter="url(#shadow-sm)">
      <rect width="252" height="112" rx="28" fill="#f7fffc"/>
      <rect x="1.5" y="1.5" width="249" height="109" rx="26.5" fill="none" stroke="#b8ddd2" stroke-width="3"/>
      <text x="28" y="40" class="coreTitle">Object namespace</text>
      <text x="28" y="57" class="coreBody">paths + metadata + version graph + media cache</text>
      <text x="28" y="72" class="coreBody">Clients hit one logical store even while data lives on several nodes.</text>

      <g transform="translate(186 24)">
        <circle cx="0" cy="0" r="6" fill="#0f6a5d"/>
        <circle cx="28" cy="18" r="6" fill="#14b8a6"/>
        <circle cx="28" cy="54" r="6" fill="#14b8a6"/>
        <circle cx="0" cy="72" r="6" fill="#0f6a5d"/>
        <path d="M0 0L28 18L28 54L0 72" fill="none" stroke="#0f6a5d" stroke-width="3" stroke-linecap="round" stroke-linejoin="round"/>
      </g>
    </g>

    <g transform="translate(66 438)" filter="url(#shadow-sm)">
      <rect width="218" height="98" rx="24" fill="#17443d" fill-opacity="0.94"/>
      <rect x="1.5" y="1.5" width="215" height="95" rx="22.5" fill="none" stroke="#3aa98e" stroke-width="2.5"/>
      <text x="18" y="36" class="nodeTitle">Node B</text>
      <text x="18" y="52" class="nodeBody">approved join</text>
      <text x="18" y="66" class="nodeBody">more capacity + more replicas</text>
    </g>

    <g transform="translate(436 438)" filter="url(#shadow-sm)">
      <rect width="218" height="98" rx="24" fill="#17443d" fill-opacity="0.94"/>
      <rect x="1.5" y="1.5" width="215" height="95" rx="22.5" fill="none" stroke="#3aa98e" stroke-width="2.5"/>
      <text x="18" y="36" class="nodeTitle">Node C</text>
      <text x="18" y="52" class="nodeBody">serve reads, writes, and repair work</text>
      <text x="18" y="66" class="nodeBody">same trust root, same cluster identity</text>
    </g>
  </g>

  <g transform="translate(60 860)" filter="url(#shadow-md)">
    <rect width="390" height="250" rx="32" fill="url(#card)"/>
    <rect x="1.5" y="1.5" width="387" height="247" rx="30.5" fill="none" stroke="url(#card-border)" stroke-width="3"/>
    <text x="28" y="38" class="eyebrow" fill="#0c8e77">ACCESS SURFACES</text>
    <text x="28" y="63" class="cardTitle">Same data, many entry points</text>
    <text x="28" y="83" class="cardBody">Browsers, phones, and file managers all ride the same bootstrap-aware client path.</text>

    <g transform="translate(28 100)">
      <rect width="92" height="28" rx="14" fill="#eef9f5"/><text x="20" y="18" class="mono">Web UI</text>
      <rect x="104" width="70" height="28" rx="14" fill="#eef9f5"/><text x="127" y="18" class="mono">CLI</text>
      <rect x="188" width="98" height="28" rx="14" fill="#eef9f5"/><text x="210" y="18" class="mono">Android</text>
      <rect x="300" width="62" height="28" rx="14" fill="#eef9f5"/><text x="322" y="18" class="mono">iOS</text>

      <rect y="28" width="116" height="28" rx="14" fill="#eef9f5"/><text x="18" y="46" class="mono">Linux FUSE</text>
      <rect x="130" y="28" width="132" height="28" rx="14" fill="#eef9f5"/><text x="146" y="46" class="mono">Windows CFAPI</text>
      <rect x="276" y="28" width="96" height="28" rx="14" fill="#eef9f5"/><text x="295" y="46" class="mono">Folder agent</text>
    </g>

    <g transform="translate(28 164)">
      <rect width="334" height="22" rx="11" fill="#11312d"/>
      <text x="14" y="15" class="mono" fill="#86ecd1">browse + upload + sync + hydrate on open + media previews</text>
    </g>
  </g>

  <g transform="translate(1230 850)" filter="url(#shadow-md)">
    <rect width="390" height="280" rx="32" fill="url(#card)"/>
    <rect x="1.5" y="1.5" width="387" height="277" rx="30.5" fill="none" stroke="url(#card-border)" stroke-width="3"/>
    <text x="28" y="38" class="eyebrow" fill="#0c8e77">STORAGE + SYNC</text>
    <text x="28" y="63" class="cardTitle">Behavior designed for real-world drift</text>
    <text x="28" y="83" class="cardBody">IronMesh favors stable placement, asynchronous repair, and conflict preservation instead of silent data loss.</text>

    <g transform="translate(28 100)">
      <rect width="334" height="30" rx="15" fill="#edf8f5"/>
      <rect width="6" height="30" rx="3" fill="#18b7a6"/>
      <text x="18" y="20" class="small" fill="#244843">Deterministic placement keeps object homes stable.</text>

      <rect y="28" width="334" height="30" rx="15" fill="#edf8f5"/>
      <rect y="28" width="6" height="30" rx="3" fill="#18b7a6"/>
      <text x="18" y="48" class="small" fill="#244843">Background auditors repair missing replicas over time.</text>

      <rect y="56" width="334" height="30" rx="15" fill="#edf8f5"/>
      <rect y="56" width="6" height="30" rx="3" fill="#18b7a6"/>
      <text x="18" y="76" class="small" fill="#244843">Offline and concurrent edits stay as preserved branches.</text>

      <rect y="84" width="334" height="30" rx="15" fill="#edf8f5"/>
      <rect y="84" width="6" height="30" rx="3" fill="#18b7a6"/>
      <text x="18" y="104" class="small" fill="#244843">Media metadata and thumbnails avoid full original downloads.</text>
    </g>
  </g>

  <g transform="translate(260 1084)" filter="url(#shadow-sm)">
    <rect width="1160" height="48" rx="24" fill="#11312d" fill-opacity="0.94"/>
    <text x="34" y="31" class="subtitle" fill="#d6f7ee">Main idea: make clustered private storage approachable without surrendering trust, topology control, or ownership of the data.</text>
  </g>
</svg>
