<svg xmlns="http://www.w3.org/2000/svg" viewBox="0 0 920 260" role="img" aria-labelledby="title desc">
  <title id="title">ironmesh logo</title>
  <desc id="desc">The ironmesh logo with a connected mesh icon and wordmark.</desc>
  <defs>
    <linearGradient id="panel" x1="24" y1="20" x2="220" y2="232" gradientUnits="userSpaceOnUse">
      <stop offset="0" stop-color="#112523"/>
      <stop offset="0.52" stop-color="#163f3a"/>
      <stop offset="1" stop-color="#0d6b5c"/>
    </linearGradient>
    <linearGradient id="mesh" x1="72" y1="68" x2="184" y2="188" gradientUnits="userSpaceOnUse">
      <stop offset="0" stop-color="#d9fff4"/>
      <stop offset="0.45" stop-color="#74e4c8"/>
      <stop offset="1" stop-color="#14b8a6"/>
    </linearGradient>
    <radialGradient id="glow" cx="0" cy="0" r="1" gradientTransform="translate(84 72) rotate(45) scale(154 132)" gradientUnits="userSpaceOnUse">
      <stop offset="0" stop-color="#74e4c8" stop-opacity="0.42"/>
      <stop offset="1" stop-color="#74e4c8" stop-opacity="0"/>
    </radialGradient>
    <filter id="soft-shadow" x="-20%" y="-20%" width="140%" height="140%">
      <feDropShadow dx="0" dy="12" stdDeviation="14" flood-color="#0b1615" flood-opacity="0.18"/>
    </filter>
  </defs>

  <g transform="translate(10 6)">
    <rect x="28" y="28" width="200" height="200" rx="54" fill="url(#panel)" filter="url(#soft-shadow)"/>
    <rect x="28" y="28" width="200" height="200" rx="54" fill="url(#glow)"/>
    <g fill="none" stroke="url(#mesh)" stroke-width="10" stroke-linecap="round" stroke-linejoin="round">
      <path d="M128 68 L176 96 L176 160 L128 188 L80 160 L80 96 Z"/>
      <path d="M128 68 L128 188"/>
      <path d="M80 96 L176 160"/>
      <path d="M176 96 L80 160"/>
      <path d="M80 96 L176 96"/>
      <path d="M80 160 L176 160"/>
    </g>
    <g fill="#effff9">
      <circle cx="128" cy="68" r="10"/>
      <circle cx="176" cy="96" r="10"/>
      <circle cx="176" cy="160" r="10"/>
      <circle cx="128" cy="188" r="10"/>
      <circle cx="80" cy="160" r="10"/>
      <circle cx="80" cy="96" r="10"/>
      <circle cx="128" cy="128" r="12" fill="#14b8a6"/>
    </g>
    <g fill="#0d3d37">
      <circle cx="128" cy="68" r="4"/>
      <circle cx="176" cy="96" r="4"/>
      <circle cx="176" cy="160" r="4"/>
      <circle cx="128" cy="188" r="4"/>
      <circle cx="80" cy="160" r="4"/>
      <circle cx="80" cy="96" r="4"/>
      <circle cx="128" cy="128" r="4" fill="#e9fff8"/>
    </g>
  </g>

  <g transform="translate(286 0)">
    <text x="0" y="122" fill="#112523" font-family="Space Grotesk, Segoe UI, Arial, sans-serif" font-size="94" font-weight="700" letter-spacing="-3">
      ironmesh
    </text>
    <text x="4" y="166" fill="#0d6b5c" font-family="Space Grotesk, Segoe UI, Arial, sans-serif" font-size="24" font-weight="600" letter-spacing="3.4">
      DISTRIBUTED EDGE STORAGE
    </text>
    <path d="M6 190 H520" stroke="#74e4c8" stroke-width="6" stroke-linecap="round"/>
    <circle cx="6" cy="190" r="6" fill="#14b8a6"/>
    <circle cx="180" cy="190" r="6" fill="#74e4c8"/>
    <circle cx="348" cy="190" r="6" fill="#74e4c8"/>
    <circle cx="520" cy="190" r="6" fill="#14b8a6"/>
  </g>
</svg>
